<?xml version="1.0" encoding="UTF-8"?>
<!--Generated by hand: custom SF Symbol "spyglass" for the Spyglass menu-bar app-->
<svg xmlns="http://www.w3.org/2000/svg" version="1.1" viewBox="0 0 3300 2200">
 <g id="notes">
 </g>
 <g id="Guides">
 </g>
 <g id="Symbols">
  <g id="Ultralight-S" transform="translate(550,550) rotate(-30)">
   <path d="M -72 -7 Q -72 -13 -66 -13 L -58 -13 L -58 -9 L -34 -10 L -34 -15 L 12 -17 L 12 -22 L 56 -24 L 56 -27 L 65 -27 Q 72 -27 72 -20 L 72 20 Q 72 27 65 27 L 56 27 L 56 24 L 12 22 L 12 17 L -34 15 L -34 10 L -58 9 L -58 13 L -66 13 Q -72 13 -72 7 Z"/>
  </g>
  <g id="Regular-S" transform="translate(1650,550) rotate(-30)">
   <path d="M -72 -7 Q -72 -13 -66 -13 L -58 -13 L -58 -9 L -34 -10 L -34 -15 L 12 -17 L 12 -22 L 56 -24 L 56 -27 L 65 -27 Q 72 -27 72 -20 L 72 20 Q 72 27 65 27 L 56 27 L 56 24 L 12 22 L 12 17 L -34 15 L -34 10 L -58 9 L -58 13 L -66 13 Q -72 13 -72 7 Z"/>
  </g>
  <g id="Black-S" transform="translate(2750,550) rotate(-30)">
   <path d="M -72 -7 Q -72 -13 -66 -13 L -58 -13 L -58 -9 L -34 -10 L -34 -15 L 12 -17 L 12 -22 L 56 -24 L 56 -27 L 65 -27 Q 72 -27 72 -20 L 72 20 Q 72 27 65 27 L 56 27 L 56 24 L 12 22 L 12 17 L -34 15 L -34 10 L -58 9 L -58 13 L -66 13 Q -72 13 -72 7 Z"/>
  </g>
  <g id="Ultralight-M" transform="translate(550,1100) rotate(-30)">
   <path d="M -72 -7 Q -72 -13 -66 -13 L -58 -13 L -58 -9 L -34 -10 L -34 -15 L 12 -17 L 12 -22 L 56 -24 L 56 -27 L 65 -27 Q 72 -27 72 -20 L 72 20 Q 72 27 65 27 L 56 27 L 56 24 L 12 22 L 12 17 L -34 15 L -34 10 L -58 9 L -58 13 L -66 13 Q -72 13 -72 7 Z"/>
  </g>
  <g id="Regular-M" transform="translate(1650,1100) rotate(-30)">
   <path d="M -72 -7 Q -72 -13 -66 -13 L -58 -13 L -58 -9 L -34 -10 L -34 -15 L 12 -17 L 12 -22 L 56 -24 L 56 -27 L 65 -27 Q 72 -27 72 -20 L 72 20 Q 72 27 65 27 L 56 27 L 56 24 L 12 22 L 12 17 L -34 15 L -34 10 L -58 9 L -58 13 L -66 13 Q -72 13 -72 7 Z"/>
  </g>
  <g id="Black-M" transform="translate(2750,1100) rotate(-30)">
   <path d="M -72 -7 Q -72 -13 -66 -13 L -58 -13 L -58 -9 L -34 -10 L -34 -15 L 12 -17 L 12 -22 L 56 -24 L 56 -27 L 65 -27 Q 72 -27 72 -20 L 72 20 Q 72 27 65 27 L 56 27 L 56 24 L 12 22 L 12 17 L -34 15 L -34 10 L -58 9 L -58 13 L -66 13 Q -72 13 -72 7 Z"/>
  </g>
  <g id="Ultralight-L" transform="translate(550,1650) rotate(-30)">
   <path d="M -72 -7 Q -72 -13 -66 -13 L -58 -13 L -58 -9 L -34 -10 L -34 -15 L 12 -17 L 12 -22 L 56 -24 L 56 -27 L 65 -27 Q 72 -27 72 -20 L 72 20 Q 72 27 65 27 L 56 27 L 56 24 L 12 22 L 12 17 L -34 15 L -34 10 L -58 9 L -58 13 L -66 13 Q -72 13 -72 7 Z"/>
  </g>
  <g id="Regular-L" transform="translate(1650,1650) rotate(-30)">
   <path d="M -72 -7 Q -72 -13 -66 -13 L -58 -13 L -58 -9 L -34 -10 L -34 -15 L 12 -17 L 12 -22 L 56 -24 L 56 -27 L 65 -27 Q 72 -27 72 -20 L 72 20 Q 72 27 65 27 L 56 27 L 56 24 L 12 22 L 12 17 L -34 15 L -34 10 L -58 9 L -58 13 L -66 13 Q -72 13 -72 7 Z"/>
  </g>
  <g id="Black-L" transform="translate(2750,1650) rotate(-30)">
   <path d="M -72 -7 Q -72 -13 -66 -13 L -58 -13 L -58 -9 L -34 -10 L -34 -15 L 12 -17 L 12 -22 L 56 -24 L 56 -27 L 65 -27 Q 72 -27 72 -20 L 72 20 Q 72 27 65 27 L 56 27 L 56 24 L 12 22 L 12 17 L -34 15 L -34 10 L -58 9 L -58 13 L -66 13 Q -72 13 -72 7 Z"/>
  </g>
 </g>
</svg>
